<svg width="24" height="24" viewBox="0 0 24 24" fill="none" xmlns="http://www.w3.org/2000/svg">
<path d="M14.2006 2.875C12.974 2.875 11.7976 3.36228 10.9303 4.22963C10.063 5.09699 9.57569 6.27337 9.57569 7.5V10.075H7.10073C6.97647 10.075 6.87573 10.1757 6.87573 10.3V13.7C6.87573 13.8243 6.97647 13.925 7.10073 13.925H9.57569V20.9C9.57569 21.0243 9.67642 21.125 9.80069 21.125H13.2006C13.3249 21.125 13.4256 21.0243 13.4256 20.9V13.925H15.9225C16.0258 13.925 16.1157 13.8547 16.1408 13.7546L16.9908 10.3546C17.0263 10.2126 16.9189 10.075 16.7725 10.075H13.4256V7.5C13.4256 7.29446 13.5073 7.09733 13.6526 6.95199C13.798 6.80665 13.9951 6.725 14.2006 6.725H16.8006C16.9248 6.725 17.0256 6.62426 17.0256 6.5V3.1C17.0256 2.97574 16.9248 2.875 16.8006 2.875H14.2006Z" stroke="#E5E5E5" stroke-width="1.99998" stroke-linecap="round" stroke-linejoin="round"/>
</svg>
