<svg width="24" height="24" viewBox="0 0 24 24" fill="none" xmlns="http://www.w3.org/2000/svg">
<path d="M11.9972 6.50627C8.95704 6.50627 6.5035 8.95984 6.5035 12C6.5035 15.0402 8.95704 17.4938 11.9972 17.4938C15.0373 17.4938 17.4908 15.0402 17.4908 12C17.4908 8.95984 15.0373 6.50627 11.9972 6.50627ZM11.9972 15.5706C10.0311 15.5706 8.42669 13.9661 8.42669 12C8.42669 10.0339 10.0311 8.42948 11.9972 8.42948C13.9632 8.42948 15.5676 10.0339 15.5676 12C15.5676 13.9661 13.9632 15.5706 11.9972 15.5706ZM17.7158 5.00091C17.006 5.00091 16.4328 5.57412 16.4328 6.28394C16.4328 6.99377 17.006 7.56698 17.7158 7.56698C18.4256 7.56698 18.9988 6.99644 18.9988 6.28394C18.9991 6.11539 18.966 5.94846 18.9016 5.7927C18.8372 5.63694 18.7427 5.49541 18.6235 5.37623C18.5043 5.25705 18.3628 5.16255 18.2071 5.09814C18.0513 5.03374 17.8844 5.0007 17.7158 5.00091ZM22.7059 12C22.7059 10.5214 22.7193 9.05627 22.6363 7.58037C22.5533 5.86609 22.1622 4.34466 20.9086 3.09109C19.6524 1.83484 18.1337 1.44644 16.4194 1.36341C14.9409 1.28037 13.4757 1.29377 11.9998 1.29377C10.5213 1.29377 9.05614 1.28037 7.58027 1.36341C5.86601 1.44644 4.34461 1.83752 3.09106 3.09109C1.83483 4.34734 1.44644 5.86609 1.36341 7.58037C1.28037 9.05894 1.29377 10.5241 1.29377 12C1.29377 13.4759 1.28037 14.9438 1.36341 16.4197C1.44644 18.1339 1.83751 19.6554 3.09106 20.9089C4.34729 22.1652 5.86601 22.5536 7.58027 22.6366C9.05882 22.7197 10.524 22.7063 11.9998 22.7063C13.4784 22.7063 14.9435 22.7197 16.4194 22.6366C18.1337 22.5536 19.6551 22.1625 20.9086 20.9089C22.1649 19.6527 22.5533 18.1339 22.6363 16.4197C22.722 14.9438 22.7059 13.4786 22.7059 12ZM20.3488 18.3161C20.1533 18.8036 19.9176 19.1679 19.5399 19.5429C19.1622 19.9206 18.8006 20.1563 18.3131 20.3518C16.9042 20.9116 13.5587 20.7857 11.9972 20.7857C10.4356 20.7857 7.08742 20.9116 5.67852 20.3545C5.19103 20.1589 4.82675 19.9232 4.45175 19.5456C4.07408 19.1679 3.83837 18.8063 3.64284 18.3188C3.0857 16.9072 3.21159 13.5616 3.21159 12C3.21159 10.4384 3.0857 7.09019 3.64284 5.68127C3.83837 5.19377 4.07408 4.82948 4.45175 4.45448C4.82942 4.07948 5.19103 3.84109 5.67852 3.64555C7.08742 3.08841 10.4356 3.2143 11.9972 3.2143C13.5587 3.2143 16.9069 3.08841 18.3158 3.64555C18.8033 3.84109 19.1676 4.0768 19.5426 4.45448C19.9203 4.83216 20.156 5.19377 20.3515 5.68127C20.9086 7.09019 20.7827 10.4384 20.7827 12C20.7827 13.5616 20.9086 16.9072 20.3488 18.3161Z" fill="#E5E5E5"/>
</svg>
