<svg width="24" height="24" viewBox="0 0 24 24" fill="none" xmlns="http://www.w3.org/2000/svg">
<path fill-rule="evenodd" clip-rule="evenodd" d="M5.00073 1.25C3.48195 1.25 2.25073 2.48122 2.25073 4C2.25073 5.51878 3.48195 6.75 5.00073 6.75C6.51952 6.75 7.75073 5.51878 7.75073 4C7.75073 2.48122 6.51952 1.25 5.00073 1.25ZM3.75073 4C3.75073 3.30964 4.31038 2.75 5.00073 2.75C5.69109 2.75 6.25073 3.30964 6.25073 4C6.25073 4.69036 5.69109 5.25 5.00073 5.25C4.31038 5.25 3.75073 4.69036 3.75073 4Z" fill="#E5E5E5"/>
<path fill-rule="evenodd" clip-rule="evenodd" d="M2.25073 8C2.25073 7.58579 2.58652 7.25 3.00073 7.25H7.00073C7.41495 7.25 7.75073 7.58579 7.75073 8V21C7.75073 21.4142 7.41495 21.75 7.00073 21.75H3.00073C2.58652 21.75 2.25073 21.4142 2.25073 21V8ZM3.75073 8.75V20.25H6.25073V8.75H3.75073Z" fill="#E5E5E5"/>
<path fill-rule="evenodd" clip-rule="evenodd" d="M9.25073 8C9.25073 7.58579 9.58652 7.25 10.0007 7.25H14.0007C14.4149 7.25 14.7507 7.58579 14.7507 8V8.43402L15.186 8.24748C15.9343 7.92676 16.7346 7.72565 17.544 7.65207C20.3189 7.3998 22.7507 9.58038 22.7507 12.3802V21C22.7507 21.4142 22.4149 21.75 22.0007 21.75H18.0007C17.5865 21.75 17.2507 21.4142 17.2507 21V14C17.2507 13.6685 17.119 13.3505 16.8846 13.1161C16.6502 12.8817 16.3323 12.75 16.0007 12.75C15.6692 12.75 15.3513 12.8817 15.1168 13.1161C14.8824 13.3505 14.7507 13.6685 14.7507 14V21C14.7507 21.4142 14.4149 21.75 14.0007 21.75H10.0007C9.58652 21.75 9.25073 21.4142 9.25073 21V8ZM10.7507 8.75V20.25H13.2507V14C13.2507 13.2707 13.5405 12.5712 14.0562 12.0555C14.5719 11.5397 15.2714 11.25 16.0007 11.25C16.7301 11.25 17.4296 11.5397 17.9453 12.0555C18.461 12.5712 18.7507 13.2707 18.7507 14V20.25H21.2507V12.3802C21.2507 10.4759 19.5898 8.97227 17.6798 9.14591C17.0258 9.20536 16.3792 9.36807 15.7769 9.6262L14.2962 10.2608C14.0644 10.3601 13.7983 10.3363 13.5879 10.1976C13.3774 10.0588 13.2507 9.82354 13.2507 9.57143V8.75H10.7507Z" fill="#E5E5E5"/>
</svg>
